#!OML:ASF I:\Actors\actors\Patient Classification 2\Patient 1\Session 1\actor1.ASF
:FULLY-SPECIFIED
:DEGREES
235
root -1.16813 18.0895 5.22673 -0.994263 -22.9086 -6.02219
lowerback 10.7152 -1.759 0.169794
upperback 2.35992 -2.4071 -1.77812
thorax -3.62668 -1.20859 -1.61367
lowerneck -17.3211 -2.00223 4.19633
upperneck 30.3072 -8.22415 10.6277
head 13.5988 -1.80267 2.07308
rclavicle -5.86415e-015 -1.74931e-014
rhumerus 20.5227 42.9426 -73.1676
rradius 47.273
rwrist -15.4996
rhand -3.06202 -62.1161
rfingers 7.12502
rthumb 22.6544 90.8064
lclavicle -5.86415e-015 -1.74931e-014
lhumerus -2.15612 1.8273 102.862
lradius 50.977
lwrist 47.3796
lhand -30.8461 -27.2634
lfingers 7.12502
lthumb -4.13452 2.67618
rfemur 11.2102 9.33014 23.0806
rtibia -9.05374
rfoot -3.59926 -5.83333
rtoes 7.94616
lfemur 24.4443 2.4479 -10.4893
ltibia -21.6909
lfoot -3.0787 25.3301
ltoes -4.94939
236
root -1.18804 18.1 5.20113 -0.837462 -23.3327 -5.89321
lowerback 11.142 -1.6204 0.0670427
upperback 2.50286 -2.24897 -2.02408
thorax -3.71421 -1.13054 -1.82474
lowerneck -17.0547 -2.08302 4.17945
upperneck 30.2756 -8.47775 11.0928
head 13.5778 -1.87074 2.21962
rclavicle 2.5842e-015 -1.27222e-014
rhumerus 20.0688 42.8016 -74.7901
rradius 46.8207
rwrist -11.9322
rhand 4.20898 -65.9159
rfingers 7.12502
rthumb 29.6152 93.5721
lclavicle 2.5842e-015 -1.27222e-014
lhumerus -2.14781 2.70483 103.371
lradius 50.5959
lwrist 48.2781
lhand -31.0008 -27.6088
lfingers 7.12502
lthumb -4.28391 2.32789
rfemur 10.6206 9.44488 22.984
rtibia -8.55519
rfoot -3.50333 -5.47554
rtoes 8.46022
lfemur 24.3965 2.87871 -10.474
ltibia -21.9662
lfoot -2.50294 25.296
ltoes -5.19919
237
root -1.20643 18.1108 5.17635 -0.731135 -23.7884 -5.74323
lowerback 11.5729 -1.47557 -0.109495
upperback 2.67795 -2.09243 -2.25927
thorax -3.76609 -1.05266 -1.98532
lowerneck -16.8325 -2.12106 4.26845
upperneck 30.3027 -8.65787 11.3943
head 13.5735 -1.91127 2.29688
rclavicle 2.54444e-014 -3.97569e-014
rhumerus 19.6975 42.9551 -76.1698
rradius 46.4389
rwrist -10.3047
rhand 5.60747 -66.3263
rfingers 7.12502
rthumb 30.9492 93.7374
lclavicle 2.54444e-014 -3.97569e-014
lhumerus -2.06939 3.51372 103.797
lradius 50.0014
lwrist 49.2691
lhand -30.7305 -28.7698
lfingers 7.12502
lthumb -4.02289 1.17197
rfemur 10.0363 9.59802 22.8749
rtibia -7.98103
rfoot -3.45572 -5.10909
rtoes 8.73577
lfemur 24.3992 3.28258 -10.4817
ltibia -22.2221
lfoot -1.86358 25.207
ltoes -5.40884
238
root -1.22232 18.1268 5.15182 -0.587427 -24.1267 -5.59622
lowerback 11.9476 -1.35043 -0.259467
upperback 2.88568 -1.96054 -2.51728
thorax -3.75453 -0.987298 -2.18453
lowerneck -16.744 -2.13336 4.4959
upperneck 30.3375 -8.84052 11.647
head 13.5956 -1.93704 2.33014
rclavicle 1.19271e-015 2.54444e-014
rhumerus 19.2277 43.1253 -77.3754
rradius 46.2832
rwrist -9.21492
rhand 5.51974 -65.8297
rfingers 7.12502
rthumb 30.8656 93.2567
lclavicle 1.19271e-015 2.54444e-014
lhumerus -1.95631 3.87322 104.116
lradius 50.1192
lwrist 51.6137
lhand -32.4051 -29.1327
lfingers 7.12502
lthumb -5.63983 0.77224
rfemur 9.36787 9.63367 22.7441
rtibia -7.325
rfoot -3.46858 -4.72325
rtoes 8.8389
lfemur 24.3467 3.33243 -10.523
ltibia -22.4857
lfoot -1.27354 25.1862
ltoes -5.05685
239
root -1.23849 18.1422 5.12767 -0.410797 -24.4351 -5.46988
lowerback 12.2145 -1.19882 -0.449763
upperback 3.12742 -1.79663 -2.76032
thorax -3.6441 -0.905654 -2.35382
lowerneck -16.7828 -2.17962 4.71295
upperneck 30.4489 -9.11857 11.9572
head 13.6911 -1.98817 2.37448
rclavicle -3.22031e-014 -1.43125e-014
rhumerus 18.606 43.1069 -78.5304
rradius 46.2538
rwrist -7.63697
rhand 5.26985 -65.3506
rfingers 7.12502
rthumb 30.6273 92.8224
lclavicle -3.22031e-014 -1.43125e-014
lhumerus -1.83318 4.09364 104.452
lradius 50.0668
lwrist 53.4205
lhand -33.2251 -29.8021
lfingers 7.12502
lthumb -6.43151 0.0802481
rfemur 8.57065 9.64148 22.6271
rtibia -6.4503
rfoot -3.5555 -4.31367
rtoes 9.00205
lfemur 24.2862 3.17321 -10.5466
ltibia -22.7691
lfoot -0.577297 25.0743
ltoes -4.82078
240
root -1.2534 18.1551 5.10487 -0.191097 -24.7312 -5.43455
lowerback 12.479 -1.05945 -0.68189
upperback 3.33321 -1.65091 -2.90311
thorax -3.56568 -0.832771 -2.3922
lowerneck -16.737 -2.25549 4.77855
upperneck 30.5436 -9.38468 12.2777
head 13.7662 -2.05498 2.4512
rclavicle 3.57812e-015 -2.54444e-014
rhumerus 17.9587 43.1992 -79.5458
rradius 46.1698
rwrist -6.10081
rhand 4.90791 -64.9449
rfingers 7.12502
rthumb 30.2821 92.4807
lclavicle 3.57812e-015 -2.54444e-014
lhumerus -1.76492 4.41983 104.805
lradius 49.9667
lwrist 54.6154
lhand -33.5163 -30.5448
lfingers 7.12502
lthumb -6.71263 -0.671201
rfemur 7.63427 9.63786 22.5948
rtibia -5.30097
rfoot -3.7433 -3.84955
rtoes 9.16266
lfemur 24.2316 2.90025 -10.4525
ltibia -23.052
lfoot 0.211963 24.7251
ltoes -4.68034
